<svg preserveAspectRatio="none" width="100%" height="100%" overflow="visible" style="display: block;" viewBox="0 0 239.801 149.743" fill="none" xmlns="http://www.w3.org/2000/svg">
<g id="Group">
<path id="Vector" fill-rule="evenodd" clip-rule="evenodd" d="M42.6031 14.4734C47.8759 12.2921 54.1918 11.9083 61.2251 14.3239C71.245 17.7654 76.7606 27.1712 77.1488 37.0809C78.6678 35.8543 80.1021 34.794 81.4315 34.0353L85.9261 32.2243L90.1461 31.9122L94.0093 32.8747L97.3045 34.8946L100.228 38.0827L102.176 41.8982L103.049 45.9592L102.951 49.964C102.881 50.4831 102.782 51.0167 102.655 51.5622C102.901 51.4304 103.147 51.3082 103.391 51.1954L107.37 50.0202L111.922 50.1828L114.515 50.941L117.17 52.2755L120.397 55.1827L122.466 58.9512L123.119 61.7303L123.237 64.2007C123.219 64.8364 123.152 65.516 123.04 66.2356C125.754 65.8393 128.553 65.9288 131.319 66.4582C137.704 67.6797 143.835 71.4392 148.003 76.8905C150.058 70.3342 152.845 64.2898 155.842 60.3143C158.037 57.4023 160.454 55.3536 162.765 54.1452L166.36 52.8114L170.65 52.5258L173.869 53.213L176.779 54.6072L179.107 56.4403L179.67 57.0841L182.442 55.0872L186.095 53.7006L189.775 53.3281L193.606 53.996L197.172 55.646L200.235 58.1731L202.765 61.8097C203.556 63.3594 204.164 65.1476 204.559 67.1806C204.882 68.8443 205.029 70.7734 205.084 72.9299C208.585 71.1646 212.439 70.2366 216.162 70.2393C224.791 70.2459 232.487 74.775 235.19 83.8658L235.888 87.7716L235.623 92.0176L234.678 94.8054L236.33 97.9586L236.897 100.738L236.882 103.579L236.135 106.771L234.804 109.501L232.21 112.668L229.276 114.948C222.69 119.131 211.318 120.308 202.999 115.33L202.013 116.122L197.469 118.098L192.792 118.475L188.258 117.413L184.123 114.909L180.867 111.007C179.165 108.081 177.799 104.027 176.887 99.4888L175.582 99.5713L174.551 99.4085C174.674 102.31 175.04 104.45 174.961 105.982L174.252 109.905L172.64 113.114L169.926 115.891L165.465 118.035C156.828 120.46 150.174 116.953 146.868 109.43C146.091 110.189 145.246 110.89 144.33 111.526C141.306 113.626 137.269 115.177 131.985 115.35C132.234 117.504 132.615 119.698 132.915 121.772C133.652 126.853 134.173 131.481 133.827 134.67L133.226 137.732L132.301 140.074L130.985 142.156L129.045 144.135L126.573 145.681L123.898 146.572L120.877 146.85L117.051 146.284L113.428 144.691L109.751 141.372C107.443 138.503 105.354 133.525 104.135 127.228C103.811 125.557 103.536 123.776 103.305 121.921L100.089 122.275L96.4888 121.765L93.1132 120.338L90.363 118.237L88.7819 116.353C83.9783 118.484 77.6664 119.276 71.791 117.949L71.5153 119.619L69.8797 122.876L67.5102 125.624C66.0988 126.919 64.2465 128.155 61.7659 129.177C61.2298 129.398 60.6746 129.571 60.1073 129.692L54.7533 129.949L49.665 128.498C47.089 127.304 44.5094 125.339 42.1434 122.402C40.2846 120.095 38.4765 116.983 36.8165 113.065C36.7815 114.803 36.8903 116.3 36.6733 117.504L34.9571 122.377L32.3351 125.694L28.8898 128.059C27.4891 128.758 25.748 129.366 23.5338 129.758L19.9553 129.948L16.5344 129.319L13.4279 128.007L10.7075 126.147C5.29229 121.647 -0.0904318 111.108 4.87339 94.514C6.44046 89.2758 9.37162 84.7883 12.2582 80.5137C13.8432 78.1663 15.5771 76.0229 16.0443 73.4574C16.4403 71.2831 17.2433 69.0009 14.5198 65.8003C-4.91118 42.9657 5.44834 16.6983 16.3877 7.5808C18.7716 5.59407 21.2533 4.26604 23.5984 3.54093L26.617 2.90395L29.9503 2.89217L32.8323 3.50697L35.59 4.73532L38.0094 6.49101L39.9722 8.60726L41.7109 11.5401L42.6031 14.4734Z" fill="var(--fill-0, white)"/>
<path id="Vector_2" fill-rule="evenodd" clip-rule="evenodd" d="M105.917 47.4331L106.545 47.2473C106.847 47.1584 107.16 47.1187 107.475 47.13L112.026 47.2926C112.268 47.3011 112.508 47.3399 112.74 47.4078L115.332 48.166C115.501 48.2153 115.665 48.2798 115.822 48.3587L118.478 49.6931C118.71 49.8097 118.924 49.9569 119.117 50.1305L122.345 53.0377C122.586 53.2549 122.789 53.511 122.945 53.7952L125.012 57.5636C125.138 57.7925 125.233 58.0375 125.292 58.2917L125.946 61.0708C125.986 61.2422 126.01 61.4169 126.018 61.5927L126.091 63.1003C128.009 63.0743 129.945 63.2502 131.867 63.6179C137.32 64.6613 142.61 67.3743 146.859 71.3343C148.782 66.2913 151.095 61.7954 153.521 58.5777C156.016 55.2657 158.788 52.9588 161.416 51.5845C161.525 51.5276 161.637 51.4776 161.752 51.4349L165.347 50.1011C165.609 50.0035 165.886 49.9444 166.166 49.9258L170.456 49.6401C170.724 49.6223 170.994 49.6417 171.258 49.6978L174.477 50.385C174.702 50.433 174.92 50.5074 175.127 50.6066L178.037 52.0008C178.229 52.0931 178.412 52.2063 178.579 52.3382L179.881 53.3634L180.742 52.7436C180.947 52.5954 181.171 52.4747 181.408 52.3846L185.062 50.998C185.299 50.9076 185.548 50.8489 185.802 50.8233L189.481 50.4507C189.746 50.424 190.012 50.4336 190.275 50.4792L194.106 51.1471C194.356 51.1907 194.6 51.2666 194.829 51.3729L198.395 53.023C198.621 53.1273 198.832 53.2603 199.024 53.4185L202.086 55.9456C202.29 56.1138 202.471 56.3088 202.621 56.5254L205.151 60.1621C205.226 60.27 205.294 60.383 205.354 60.5C206.256 62.2698 206.958 64.3093 207.409 66.6308C207.537 67.2889 207.641 67.9853 207.723 68.718C210.493 67.8112 213.362 67.3452 216.164 67.3472C226.072 67.3546 234.87 72.6067 237.973 83.0442C238.004 83.1478 238.03 83.253 238.049 83.3594L238.747 87.2651C238.787 87.4913 238.799 87.7215 238.786 87.9508L238.522 92.1968C238.506 92.4512 238.456 92.7023 238.374 92.9439L237.825 94.5619L238.904 96.6206C239.03 96.8607 239.121 97.1173 239.176 97.3827L239.743 100.162C239.782 100.357 239.801 100.555 239.801 100.754L239.785 103.596C239.784 103.811 239.759 104.026 239.709 104.236L238.963 107.428C238.914 107.637 238.842 107.842 238.747 108.035L237.416 110.766C237.318 110.967 237.195 111.157 237.053 111.332L234.459 114.497C234.321 114.665 234.166 114.816 233.995 114.949L231.062 117.229C230.989 117.285 230.914 117.338 230.837 117.387C223.932 121.773 212.313 123.194 203.232 118.747C203.213 118.757 203.193 118.766 203.173 118.774L198.63 120.749C198.337 120.876 198.023 120.955 197.703 120.981L193.028 121.358C192.726 121.382 192.423 121.36 192.129 121.291L187.594 120.229C187.296 120.159 187.011 120.043 186.751 119.885L182.615 117.381C182.341 117.216 182.096 117.005 181.89 116.758L178.634 112.857C178.53 112.732 178.437 112.598 178.354 112.457C177.939 111.742 177.54 110.964 177.161 110.132L177.109 110.417C177.06 110.688 176.973 110.952 176.849 111.199L175.237 114.408C175.103 114.674 174.929 114.919 174.72 115.133L172.005 117.909C171.768 118.152 171.492 118.351 171.187 118.497L166.726 120.641C166.573 120.714 166.415 120.773 166.252 120.819C161.151 122.251 156.638 121.858 152.908 120.07C150.166 118.754 147.823 116.67 145.995 113.896L145.991 113.899C143.216 115.824 139.695 117.361 135.272 117.972C135.445 119.119 135.629 120.255 135.788 121.358C136.566 126.725 137.078 131.613 136.714 134.981C136.705 135.063 136.692 135.144 136.676 135.225L136.076 138.287C136.042 138.459 135.992 138.628 135.928 138.792L135.002 141.134C134.936 141.301 134.854 141.462 134.757 141.616L133.442 143.697C133.333 143.87 133.206 144.031 133.062 144.176L131.122 146.156C130.962 146.32 130.782 146.464 130.588 146.585L128.116 148.132C127.921 148.253 127.712 148.351 127.494 148.424L124.819 149.316C124.607 149.387 124.388 149.433 124.165 149.453L121.143 149.731C120.913 149.752 120.68 149.746 120.45 149.712L116.624 149.146C116.367 149.107 116.117 149.035 115.879 148.931L112.256 147.338C111.971 147.214 111.709 147.043 111.478 146.835L107.802 143.516C107.688 143.413 107.583 143.301 107.486 143.182C104.968 140.052 102.616 134.648 101.285 127.776C101.117 126.912 100.962 126.02 100.819 125.105L100.408 125.15C100.166 125.177 99.9217 125.173 99.6808 125.139L96.0804 124.629C95.8314 124.594 95.587 124.526 95.3552 124.428L91.9797 123.001C91.7537 122.906 91.5414 122.783 91.3464 122.634L88.5961 120.533C88.4263 120.403 88.2714 120.255 88.1349 120.092L87.8974 119.808C83.7152 121.259 78.7798 121.857 73.94 121.256L72.476 124.171C72.3694 124.383 72.2371 124.581 72.0818 124.762L69.7123 127.51C69.6385 127.596 69.5597 127.677 69.4763 127.753C67.8528 129.242 65.7289 130.675 62.8754 131.851C62.1774 132.139 61.4546 132.363 60.716 132.52C60.5617 132.554 60.4048 132.574 60.247 132.581L54.893 132.838C54.5766 132.853 54.2595 132.817 53.9549 132.73L48.8665 131.28C48.7203 131.238 48.5777 131.185 48.4398 131.121C45.5132 129.763 42.5677 127.55 39.8798 124.213C39.3154 123.513 38.7544 122.744 38.1994 121.908L37.6965 123.335C37.5906 123.635 37.4357 123.916 37.238 124.166L34.6161 127.484C34.4359 127.712 34.2224 127.911 33.9826 128.076L30.5373 130.442C30.426 130.519 30.3094 130.587 30.1886 130.647C28.5799 131.449 26.5835 132.157 24.0408 132.606C23.9245 132.627 23.8069 132.64 23.6889 132.646L20.1104 132.837C19.8822 132.85 19.6533 132.835 19.4286 132.794L16.0077 132.164C15.7993 132.126 15.5958 132.065 15.4007 131.983L12.2943 130.67C12.116 130.594 11.9457 130.502 11.786 130.392L9.0656 128.533C8.99056 128.482 8.91793 128.427 8.84806 128.368C2.89991 123.425 -3.36089 111.915 2.09148 93.6882C3.74471 88.1614 6.80415 83.4094 9.84959 78.8994C11.2014 76.8975 12.7895 75.1292 13.1879 72.9414C13.459 71.4532 14.1697 69.8619 12.3056 67.6712C-8.49269 43.2298 2.81615 15.1215 14.5252 5.36255C17.2379 3.10169 20.0696 1.60379 22.7381 0.778754C22.8234 0.752347 22.9098 0.72994 22.9971 0.711535L26.0157 0.0745567C26.21 0.033631 26.4081 0.0125966 26.6068 0.0117963L29.94 2.15466e-05C30.1478 -0.000778677 30.3551 0.0207136 30.5582 0.0640401L33.4402 0.678955C33.6386 0.721252 33.8321 0.784241 34.0172 0.866664L36.7748 2.09501C36.9598 2.17743 37.1354 2.27883 37.2992 2.39761L39.7186 4.1533C39.8715 4.2643 40.0131 4.38982 40.1415 4.52826L42.1043 6.64451C42.2439 6.79507 42.367 6.95991 42.4717 7.13642L44.2105 10.0692C44.3285 10.2682 44.4221 10.4803 44.4893 10.7014L44.5073 10.7606C49.7019 9.30971 55.6596 9.35315 62.1713 11.5897C71.6252 14.8367 77.5492 22.7943 79.4269 31.8587C79.616 31.7426 79.8032 31.6316 79.9885 31.5259C80.1027 31.4607 80.2211 31.4033 80.3431 31.3542L84.8372 29.5431C85.1162 29.4308 85.4111 29.3623 85.7105 29.3401L89.9305 29.028C90.2392 29.0052 90.5501 29.0317 90.8496 29.1065L94.7139 30.0689C95.0019 30.1408 95.2772 30.2563 95.5308 30.4115L98.826 32.4314C99.0555 32.5726 99.2654 32.745 99.4467 32.9438L102.371 36.1317C102.548 36.3241 102.697 36.5394 102.815 36.7717L104.764 40.5873C104.877 40.8105 104.962 41.0477 105.015 41.2928L105.888 45.3539C105.935 45.5761 105.957 45.8031 105.951 46.0304L105.917 47.4331Z" fill="var(--fill-0, #00BD84)"/>
</g>
</svg>